<svg width="1830" height="598" viewBox="0 0 1830 598" fill="none" xmlns="http://www.w3.org/2000/svg">
<path d="M501.146 474H499.44L325.789 390.807H378.235L298.089 251.988L217.941 390.807H272.357L98.7061 474H97L299.072 124L501.146 474Z" fill="black"/>
<path d="M610.9 203.8L708.7 204.1C751.3 204.1 775 227.2 775 262.3C775 281.5 766.3 296.2 748 303.7V304.9C769.9 313.3 782.2 330.1 782.2 355.9C782.2 393.7 757.6 418 712.6 418H610.9V203.8ZM648.7 293.8H702.7C725.2 293.8 736.9 283 736.9 264.1C736.9 245.5 725.2 234.7 702.7 234.7H648.7V293.8ZM648.7 386.8H706.3C730.9 386.8 743.8 374.8 743.8 354.4C743.8 334 730.9 322.3 706.3 322.3H648.7V386.8ZM979.209 203.8V339.1C979.209 394.9 940.809 422.8 890.709 422.8C840.309 422.8 802.209 394.9 802.209 339.1V203.8H840.009V335.5C840.009 375.7 858.309 391.3 890.709 391.3C923.109 391.3 941.409 375.7 941.409 335.5V203.8H979.209ZM1168.44 263.5L1130.94 266.2C1125.84 241.3 1107.54 228.7 1081.44 228.7C1055.94 228.7 1040.04 241.6 1040.04 259.6C1040.04 276.7 1054.14 282.1 1072.44 286.6L1108.44 295C1141.44 303.1 1173.84 311.5 1173.84 359.5C1173.84 402.1 1135.44 423.1 1088.64 423.1C1036.44 423.1 1001.64 398.2 994.743 352L1031.94 348.4C1036.14 382 1061.04 393.4 1089.24 393.4C1116.54 393.4 1135.44 381.1 1135.44 360.4C1135.44 339.4 1119.54 334.3 1097.34 328.9L1059.84 319.6C1031.34 312.4 1001.94 301.6 1001.94 260.8C1001.94 222.4 1036.74 199 1082.04 199C1129.74 199 1158.54 222.4 1168.44 263.5ZM1357.58 236.2H1286.78V418H1248.98V236.2H1178.18V203.8H1357.58V236.2ZM1412.76 292.9H1521.96V322.9H1412.76V386.2H1526.76V418H1374.96V203.8H1526.76V235H1412.76V292.9ZM1685.2 418L1635.7 336.1H1586.2V418H1548.4V203.8H1649.8C1698.4 203.8 1725.4 229.9 1725.4 270.1C1725.4 302.2 1708.3 325.3 1676.5 333.1L1729.3 418H1685.2ZM1586.2 305.2H1644.7C1672.3 305.2 1687 292.3 1687 270.1C1687 247.9 1672.3 235 1644.7 235H1586.2V305.2Z" fill="black"/>
</svg>
