<svg width="1830" height="598" viewBox="0 0 1830 598" fill="none" xmlns="http://www.w3.org/2000/svg">
<path d="M501.146 474H499.44L325.789 390.807H378.235L298.089 251.988L217.941 390.807H272.357L98.7061 474H97L299.072 124L501.146 474Z" fill="black"/>
<path d="M751.3 363.4H658.9L639.4 418H598.6L681.1 203.8H729.7L812.2 418H771.1L751.3 363.4ZM740.2 332.8L705.7 237.1H704.5L670 332.8H740.2ZM969.332 203.8L891.932 334.9V418H854.132V335.2L776.432 203.8H818.132L873.332 302.8L928.532 203.8H969.332ZM1199.86 203.8V418H1163.86V254.5H1162.66L1105.66 418H1076.56L1019.56 254.5H1018.36V418H983.556V203.8H1038.76L1091.26 362.2H1092.46L1144.66 203.8H1199.86ZM1366.24 363.4H1273.84L1254.34 418H1213.54L1296.04 203.8H1344.64L1427.14 418H1386.04L1366.24 363.4ZM1355.14 332.8L1320.64 237.1H1319.44L1284.94 332.8H1355.14ZM1621.18 418H1580.08L1476.88 256.3H1475.68V418H1440.88V203.8H1483.48L1585.18 363.4H1586.38V203.8H1621.18V418Z" fill="black"/>
</svg>
