<svg width="517" height="513" viewBox="0 0 517 513" fill="none" xmlns="http://www.w3.org/2000/svg">
<path fill-rule="evenodd" clip-rule="evenodd" d="M265.475 42.4093C277.187 42.4093 286.681 32.924 286.681 21.2232C286.681 9.52247 277.187 0.0371094 265.475 0.0371094C253.764 0.0371094 244.27 9.52247 244.27 21.2232C244.27 32.924 253.764 42.4093 265.475 42.4093ZM181.147 139.303C175.689 132.254 171.3 123.449 173.609 114.841C175.918 106.232 184.125 100.799 192.379 97.4207C202.737 93.1824 211.063 84.33 214.183 72.6952C219.488 52.9168 207.74 32.5866 187.943 27.2869C168.146 21.9873 147.798 33.7248 142.493 53.5035C139.373 65.1387 142.153 76.9649 149.002 85.8097C154.461 92.8584 158.849 101.662 156.54 110.271C154.231 118.879 146.025 124.312 137.77 127.69C127.412 131.928 119.085 140.78 115.965 152.416C110.66 172.194 122.409 192.524 142.205 197.824C162.002 203.124 182.351 191.386 187.655 171.608C190.776 159.973 187.995 148.147 181.147 139.303ZM408.093 183.349C399.477 181.043 390.665 185.426 383.611 190.879C374.758 197.723 362.921 200.501 351.275 197.384C331.478 192.084 319.73 171.754 325.034 151.975C330.339 132.197 350.687 120.459 370.484 125.759C382.129 128.876 390.99 137.195 395.232 147.542C398.613 155.79 404.052 163.989 412.669 166.296C421.285 168.603 430.097 164.219 437.153 158.766C446.006 151.925 457.841 149.148 469.486 152.265C489.284 157.565 501.029 177.895 495.727 197.674C490.421 217.452 470.073 229.19 450.277 223.89C438.63 220.772 429.769 212.452 425.527 202.102C422.146 193.855 416.709 185.656 408.093 183.349ZM490.892 366.484C476.399 380.963 452.902 380.963 438.41 366.484C429.885 357.967 426.375 346.338 427.879 335.258C429.077 326.427 428.471 316.611 422.163 310.309C415.855 304.007 406.03 303.401 397.19 304.599C386.1 306.101 374.46 302.594 365.935 294.078C351.443 279.598 351.443 256.123 365.935 241.644C380.428 227.165 403.924 227.165 418.417 241.644C426.943 250.163 430.453 261.796 428.946 272.879C427.746 281.708 428.351 291.524 434.658 297.824C440.965 304.125 450.789 304.73 459.627 303.531C470.72 302.025 482.366 305.532 490.892 314.051C505.384 328.529 505.384 352.005 490.892 366.484ZM303.354 456.081C298.049 475.858 309.797 496.19 329.594 501.491C349.391 506.788 369.74 495.05 375.045 475.274C378.165 463.637 375.384 451.811 368.534 442.966C363.076 435.918 358.689 427.115 360.997 418.507C363.305 409.899 371.511 404.467 379.765 401.089C390.122 396.851 398.449 387.999 401.57 376.363C406.874 356.585 395.126 336.255 375.329 330.955C355.533 325.655 335.184 337.393 329.879 357.172C326.759 368.807 329.54 380.635 336.39 389.479C341.848 396.527 346.236 405.331 343.928 413.938C341.619 422.546 333.414 427.978 325.16 431.355C314.802 435.593 306.474 444.446 303.354 456.081ZM135.59 473.523C125.343 455.79 131.423 433.115 149.173 422.876C159.615 416.853 171.769 416.477 182.093 420.798C190.32 424.241 199.967 426.197 207.692 421.741C215.417 417.285 218.545 407.96 219.674 399.119C221.09 388.026 227.494 377.698 237.936 371.675C255.685 361.437 278.381 367.512 288.629 385.245C298.876 402.979 292.795 425.654 275.046 435.892C264.605 441.914 252.453 442.292 242.13 437.973C233.902 434.53 224.254 432.574 216.528 437.03C208.803 441.487 205.674 450.813 204.544 459.653C203.127 470.745 196.723 481.069 186.283 487.093C168.534 497.33 145.838 491.254 135.59 473.523ZM133.924 337.898C126.869 343.351 118.058 347.735 109.443 345.428C100.827 343.122 95.3908 334.924 92.0106 326.677C87.7688 316.328 78.9078 308.008 67.261 304.889C47.4639 299.59 27.1155 311.327 21.8109 331.106C16.5065 350.885 28.2547 371.214 48.0516 376.515C59.697 379.632 71.5336 376.854 80.3861 370.012C87.4412 364.559 96.2533 360.175 104.869 362.482C113.485 364.788 118.923 372.986 122.303 381.233C126.546 391.581 135.406 399.9 147.052 403.018C166.849 408.317 187.197 396.58 192.502 376.801C197.806 357.023 186.058 336.692 166.261 331.393C154.614 328.275 142.776 331.054 133.924 337.898ZM26.6474 162.295C41.1397 147.817 64.6363 147.817 79.1284 162.295C87.6538 170.813 91.1637 182.443 89.6589 193.524C88.4597 202.354 89.0664 212.168 95.3727 218.469C101.68 224.771 111.505 225.376 120.344 224.177C131.436 222.672 143.079 226.179 151.605 234.697C166.097 249.176 166.097 272.651 151.605 287.13C137.113 301.609 113.616 301.609 99.1237 287.13C90.5984 278.612 87.0884 266.982 88.5933 255.9C89.7929 247.071 89.1862 237.257 82.88 230.956C76.5727 224.655 66.7479 224.05 57.9092 225.249C46.8168 226.753 35.1738 223.247 26.6474 214.728C12.1552 200.249 12.1552 176.774 26.6474 162.295ZM309.842 107.037C302.117 111.492 298.99 120.816 297.861 129.655C296.445 140.749 290.042 151.077 279.599 157.101C261.85 167.339 239.154 161.263 228.906 143.53C218.659 125.797 224.74 103.122 242.49 92.8836C252.93 86.8615 265.083 86.4838 275.407 90.8039C283.634 94.2465 293.282 96.2022 301.008 91.7463C308.732 87.2904 311.861 77.9658 312.991 69.1258C314.409 58.0345 320.812 47.7089 331.252 41.6868C349.002 31.4486 371.698 37.5244 381.945 55.2574C392.193 72.9907 386.111 95.6654 368.362 105.904C357.919 111.928 345.764 112.304 335.439 107.981C327.213 104.537 317.566 102.582 309.842 107.037ZM495.204 286.05C506.915 286.05 516.406 276.565 516.406 264.864C516.406 253.163 506.915 243.677 495.204 243.677C483.493 243.677 473.998 253.163 473.998 264.864C473.998 276.565 483.493 286.05 495.204 286.05ZM456.326 102.437C456.326 114.137 446.831 123.623 435.12 123.623C423.408 123.623 413.914 114.137 413.914 102.437C413.914 90.7359 423.408 81.2508 435.12 81.2508C446.831 81.2508 456.326 90.7359 456.326 102.437ZM109.968 95.3738C109.968 107.075 100.474 116.56 88.7626 116.56C77.0511 116.56 67.5572 107.075 67.5572 95.3738C67.5572 83.673 77.0511 74.1878 88.7626 74.1878C100.474 74.1878 109.968 83.673 109.968 95.3738ZM21.6113 286.05C33.3229 286.05 42.8169 276.565 42.8169 264.864C42.8169 253.163 33.3229 243.677 21.6113 243.677C9.89983 243.677 0.405762 253.163 0.405762 264.864C0.405762 276.565 9.89983 286.05 21.6113 286.05ZM106.435 423.759C106.435 435.46 96.9403 444.945 85.2288 444.945C73.5173 444.945 64.0234 435.46 64.0234 423.759C64.0234 412.058 73.5173 402.573 85.2288 402.573C96.9403 402.573 106.435 412.058 106.435 423.759ZM247.805 512.037C259.516 512.037 269.01 502.551 269.01 490.85C269.01 479.15 259.516 469.664 247.805 469.664C236.093 469.664 226.599 479.15 226.599 490.85C226.599 502.551 236.093 512.037 247.805 512.037ZM452.79 430.821C452.79 442.522 443.296 452.007 431.585 452.007C419.873 452.007 410.379 442.522 410.379 430.821C410.379 419.121 419.873 409.635 431.585 409.635C443.296 409.635 452.79 419.121 452.79 430.821ZM257.494 325.555C292.639 325.555 321.13 297.091 321.13 261.978C321.13 226.865 292.639 198.401 257.494 198.401C222.349 198.401 193.859 226.865 193.859 261.978C193.859 297.091 222.349 325.555 257.494 325.555Z" fill="black"/>
</svg>
